<svg fill="#000000" xmlns="http://www.w3.org/2000/svg"  viewBox="0 0 50 50" width="50px" height="50px"><path fill-rule="evenodd" d="M 14.234375 7 L 11.988281 7 L 9.953125 7.003906 L 8.175781 7.007813 L 6.695313 7.007813 L 5.558594 7.011719 L 5.132813 7.015625 L 4.8125 7.015625 L 4.601563 7.019531 L 4.535156 7.023438 L 4.5 7.023438 C 5.097656 8.304688 5.707031 9.679688 6.296875 11.042969 L 6.296875 11.046875 C 6.601563 11.742188 6.878906 12.390625 7.171875 13.066406 L 7.59375 14.050781 C 7.722656 14.359375 7.871094 14.703125 8 15 C 8.070313 15.160156 8.113281 15.320313 8.140625 15.484375 C 8.164063 15.652344 8.164063 15.816406 8.15625 15.984375 C 8.136719 16.320313 8.066406 16.660156 8 17 C 6.96875 22.066406 3 41.023438 3 41.023438 L 11.5 41.023438 C 12.402344 36.816406 13.332031 32.636719 14.261719 28.472656 L 14.953125 25.355469 L 15.300781 23.796875 L 15.644531 22.238281 L 15.984375 20.6875 L 16.328125 19.128906 L 16.664063 17.578125 L 17 16.023438 L 24 16.023438 L 23.832031 16.808594 L 23.503906 18.371094 L 23.34375 19.15625 L 23.183594 19.9375 L 23.027344 20.71875 L 22.871094 21.503906 L 22.558594 23.066406 L 22.40625 23.851563 L 22.097656 25.414063 L 21.796875 26.980469 L 21.492188 28.542969 C 21.089844 30.628906 20.6875 32.707031 20.277344 34.789063 C 19.867188 36.871094 19.441406 38.949219 19 41.023438 L 27 41.023438 C 27.445313 38.941406 27.933594 36.855469 28.441406 34.765625 C 28.90625 32.847656 29.390625 30.929688 29.875 29.015625 L 30.003906 28.488281 L 30.402344 26.921875 L 31.183594 23.796875 L 31.566406 22.234375 L 31.753906 21.453125 L 31.941406 20.675781 L 32.308594 19.121094 L 32.484375 18.34375 L 32.574219 17.957031 L 32.917969 16.410156 L 33 16.023438 C 33.519531 16.011719 34.847656 16.023438 36.003906 16.023438 C 36.195313 16.023438 36.320313 16.023438 36.5 16.023438 C 36.875 16.023438 37.207031 16.039063 37.503906 16.066406 C 37.804688 16.097656 38.066406 16.144531 38.292969 16.207031 C 38.519531 16.269531 38.714844 16.347656 38.878906 16.4375 C 39.042969 16.53125 39.179688 16.644531 39.285156 16.765625 C 39.394531 16.890625 39.472656 17.03125 39.53125 17.1875 C 39.589844 17.347656 39.625 17.515625 39.636719 17.703125 C 39.648438 17.894531 39.644531 18.097656 39.621094 18.316406 C 39.59375 18.535156 39.554688 18.773438 39.5 19.023438 C 38.894531 21.804688 37.742188 26.832031 36.699219 31.386719 L 36.664063 31.535156 C 36.664063 31.539063 36.664063 31.539063 36.664063 31.539063 L 35.90625 34.847656 L 35.25 37.707031 L 34.980469 38.886719 L 34.761719 39.855469 L 34.597656 40.578125 L 34.539063 40.835938 L 34.5 41.023438 L 35.019531 41.023438 L 35.527344 41.019531 L 36.503906 41.015625 L 37.453125 41.011719 L 38.402344 41.003906 C 39.664063 41 40.960938 41 42.5 41.023438 L 42.527344 41.023438 L 42.550781 41.019531 L 42.578125 41.019531 L 42.601563 41.015625 L 42.625 41.015625 L 42.652344 41.011719 L 42.671875 41.003906 L 42.699219 41 L 42.839844 40.953125 L 42.886719 40.933594 L 42.925781 40.910156 L 42.96875 40.886719 L 43.015625 40.859375 L 43.054688 40.828125 L 43.09375 40.800781 L 43.132813 40.769531 L 43.171875 40.734375 L 43.210938 40.695313 L 43.238281 40.671875 L 43.269531 40.632813 L 43.332031 40.5625 L 43.359375 40.527344 L 43.386719 40.488281 L 43.433594 40.417969 L 43.472656 40.347656 L 43.488281 40.3125 L 43.519531 40.25 L 43.53125 40.21875 L 43.539063 40.1875 L 43.546875 40.160156 L 44.074219 37.785156 L 44.859375 34.222656 L 45.117188 33.035156 L 45.378906 31.847656 L 45.894531 29.472656 L 46.152344 28.28125 L 46.660156 25.90625 L 46.917969 24.714844 L 47.171875 23.527344 L 47.671875 21.144531 L 47.703125 20.988281 L 47.734375 20.839844 L 47.765625 20.683594 L 47.792969 20.53125 L 47.816406 20.375 L 47.84375 20.222656 L 47.863281 20.070313 L 47.886719 19.917969 L 47.902344 19.765625 L 47.921875 19.613281 L 47.9375 19.464844 L 47.949219 19.3125 L 47.964844 19.15625 L 47.972656 19.007813 L 47.984375 18.859375 L 47.988281 18.707031 C 47.988281 18.707031 47.988281 18.707031 47.988281 18.703125 L 47.996094 18.558594 L 48 18.40625 L 48 17.957031 L 47.996094 17.808594 L 47.972656 17.363281 L 47.960938 17.21875 L 47.949219 17.070313 L 47.933594 16.921875 L 47.914063 16.777344 L 47.894531 16.628906 L 47.875 16.484375 L 47.851563 16.34375 L 47.851563 16.339844 C 47.851563 16.335938 47.851563 16.335938 47.847656 16.332031 L 47.828125 16.191406 L 47.800781 16.046875 L 47.769531 15.90625 L 47.707031 15.617188 L 47.636719 15.328125 L 47.550781 15.046875 L 47.511719 14.90625 L 47.417969 14.625 L 47.363281 14.484375 L 47.261719 14.203125 L 47.214844 14.089844 C 47.207031 14.070313 47.195313 14.054688 47.1875 14.035156 L 47.140625 13.925781 L 47.082031 13.785156 L 47.019531 13.652344 L 46.953125 13.515625 L 46.886719 13.375 L 46.8125 13.238281 L 46.742188 13.105469 L 46.667969 12.96875 L 46.589844 12.835938 L 46.511719 12.699219 L 46.425781 12.566406 L 46.34375 12.433594 L 46.257813 12.300781 L 46.078125 12.035156 L 45.984375 11.90625 L 45.765625 11.609375 L 45.652344 11.46875 L 45.535156 11.328125 L 45.421875 11.1875 L 45.308594 11.050781 L 45.1875 10.917969 L 45.070313 10.785156 L 44.828125 10.527344 L 44.703125 10.402344 L 44.578125 10.28125 L 44.453125 10.15625 L 44.328125 10.035156 L 44.199219 9.921875 L 44.066406 9.804688 L 43.9375 9.695313 L 43.800781 9.585938 L 43.671875 9.476563 L 43.53125 9.371094 L 43.394531 9.265625 L 43.261719 9.164063 L 42.980469 8.96875 L 42.839844 8.875 L 42.695313 8.78125 L 42.261719 8.523438 L 42.109375 8.4375 L 41.964844 8.359375 L 41.660156 8.203125 L 41.511719 8.132813 L 41.359375 8.058594 L 41.203125 7.992188 L 41.046875 7.921875 L 40.578125 7.734375 L 40.417969 7.679688 L 40.253906 7.625 L 40.09375 7.570313 L 39.933594 7.523438 L 39.605469 7.429688 L 39.4375 7.386719 L 39.273438 7.34375 L 39.105469 7.304688 L 38.9375 7.273438 L 38.769531 7.238281 L 38.597656 7.207031 L 38.429688 7.179688 L 38.257813 7.152344 L 38.085938 7.128906 L 37.910156 7.105469 L 37.738281 7.085938 L 37.5625 7.070313 L 37.390625 7.054688 L 37.214844 7.046875 L 37.035156 7.035156 L 36.859375 7.03125 L 36.679688 7.023438 L 36.5 7.023438 L 34.378906 7.015625 L 32.066406 7.015625 L 27.039063 7.007813 L 21.78125 7 Z"/></svg>